<svg xmlns="http://www.w3.org/2000/svg" height="512" id="Layer_1" viewBox="0 0 512 512" width="512"><defs id="defs12"/><g id="g5124"><rect height="512" id="rect2987" rx="64" ry="64" width="512" fill="#65bc54"/><path d="m456 250.9c0 107.6-87.9 194.8-196.4 194.8-34.4 0-66.8-8.8-94.9-24.2L56 456 91.4 351.5C73.6 322.1 63.3 287.7 63.3 250.9 63.3 143.2 151.2 56 259.6 56 368.1 56 456 143.2 456 250.9zM259.6 87c-91 0-165.1 73.5-165.1 163.8 0 35.8 11.7 69 31.4 96l-20.6 60.8 63.4-20.2c26.1 17.1 57.3 27.1 90.8 27.1 91 0 165.1-73.5 165.1-163.8 0-90.3-74.1-163.8-165.1-163.8zm99.2 208.7c-1.2-2-4.4-3.2-9.2-5.6-4.8-2.4-28.5-13.9-32.9-15.5-4.4-1.6-7.6-2.4-10.8 2.4-3.2 4.8-12.4 15.5-15.2 18.7-2.8 3.2-5.6 3.6-10.4 1.2-4.8-2.4-20.3-7.4-38.7-23.7-14.3-12.7-24-28.3-26.8-33.1-2.8-4.8-0.3-7.4 2.1-9.7 2.2-2.1 4.8-5.6 7.2-8.4 2.4-2.8 3.2-4.8 4.8-8 1.6-3.2 0.8-6-0.4-8.4-1.2-2.4-10.8-25.9-14.8-35.4-4-9.6-8-8-10.8-8-2.8 0-6-0.4-9.2-0.4-3.2 0-8.4 1.2-12.8 6-4.4 4.8-16.8 16.3-16.8 39.8 0 23.5 17.2 46.2 19.7 49.4 2.4 3.2 33.3 53 82.2 72.1 48.9 19.1 48.9 12.7 57.8 11.9 8.8-0.8 28.5-11.5 32.5-22.7 4-11.1 4-20.7 2.8-22.7z" id="WhatsApp_2_" fill="#fff"/></g></svg>