<svg xmlns="http://www.w3.org/2000/svg" xmlns:xlink="http://www.w3.org/1999/xlink" viewBox="0 0 226.77 50"><defs><style>.cls-1{fill:url(#Degradado_sin_nombre_40);}.cls-2{opacity:0.5;fill:url(#Degradado_sin_nombre_42);}.cls-3{fill:#fff;}</style><linearGradient id="Degradado_sin_nombre_40" y1="-177.58" x2="226.77" y2="-177.58" gradientTransform="translate(226.77 -96.66) rotate(180) scale(1 0.71)" gradientUnits="userSpaceOnUse"><stop offset="0" stop-color="#e6332a"/><stop offset="1" stop-color="#e71d73"/></linearGradient><linearGradient id="Degradado_sin_nombre_42" y1="-170.33" x2="226.77" y2="-170.33" gradientTransform="translate(226.77 -96.66) rotate(180) scale(1 0.71)" gradientUnits="userSpaceOnUse"><stop offset="0" stop-color="#f980e7"/><stop offset="1" stop-color="#e71d73"/></linearGradient></defs><title>Recurso 2</title><g id="Capa_2" data-name="Capa 2"><g id="Capa_1-2" data-name="Capa 1"><path class="cls-1" d="M0,10.36s113.38,7.86,226.77,7.14V50H0Z"/><path class="cls-2" d="M0,0S113.38,16.43,226.77,15.71V50H0Z"/><path class="cls-3" d="M25.79,26.93l-.46.38a2.34,2.34,0,0,0-2.08-1.21,1.84,1.84,0,0,0-1.37.57,1.91,1.91,0,0,0-.56,1.38,1.49,1.49,0,0,0,.15.68,1.57,1.57,0,0,0,.49.55,4.68,4.68,0,0,0,.54.36l.66.33,2,1a2.29,2.29,0,0,1,1.17,2,2.72,2.72,0,0,1-1,2.11,3.25,3.25,0,0,1-2.24.86,3,3,0,0,1-1.85-.6,3.39,3.39,0,0,1-1.17-1.6l.57-.26a2.54,2.54,0,0,0,2.47,1.85,2.5,2.5,0,0,0,1.77-.71A2.26,2.26,0,0,0,25.64,33a1.39,1.39,0,0,0-.13-.59,2,2,0,0,0-.27-.45,2.27,2.27,0,0,0-.47-.39l-.47-.29L23.77,31l-.19-.09-1.85-1a2,2,0,0,1-1.06-1.83,2.51,2.51,0,0,1,.73-1.87,2.57,2.57,0,0,1,1.89-.73,2.89,2.89,0,0,1,1.45.39A2.69,2.69,0,0,1,25.79,26.93Z"/><path class="cls-3" d="M26.71,24.66h.61v5.9h0a2,2,0,0,1,.76-.82,2.1,2.1,0,0,1,1.1-.29,1.82,1.82,0,0,1,1.61.66,3.46,3.46,0,0,1,.45,2v3.79h-.61V32.07a5.65,5.65,0,0,0,0-.81,2.35,2.35,0,0,0-.19-.63.92.92,0,0,0-.46-.46,1.91,1.91,0,0,0-.81-.15q-1.83,0-1.83,2.74v3.09h-.61Z"/><path class="cls-3" d="M31.76,27.86a.55.55,0,0,1,.48-.2.53.53,0,0,1,.3.12.55.55,0,0,1,.2.48.53.53,0,0,1-.12.3.55.55,0,0,1-.48.2.53.53,0,0,1-.3-.12.55.55,0,0,1-.2-.48A.53.53,0,0,1,31.76,27.86Zm.73,1.73v6.27h-.61V29.59Z"/><path class="cls-3" d="M33.75,29.59v1h0a2,2,0,0,1,.76-.82,2.1,2.1,0,0,1,1.1-.29,1.82,1.82,0,0,1,1.61.66,3.46,3.46,0,0,1,.45,2v3.79h-.61V32.07a5.66,5.66,0,0,0,0-.81,2.36,2.36,0,0,0-.19-.63.92.92,0,0,0-.46-.46,1.91,1.91,0,0,0-.81-.15q-1.83,0-1.83,2.74v3.09h-.61V29.59Z"/><path class="cls-3" d="M49.92,31.87H46.25v4H44.4V26.12h1.85v4h3.67v-4h1.85v9.73H49.92Z"/><path class="cls-3" d="M52.16,32.62a3.15,3.15,0,0,1,3.14-3.36,2.59,2.59,0,0,1,1.93.76v-.63H59v6.46H57.23v-.72a2.52,2.52,0,0,1-2,.85A3.19,3.19,0,0,1,52.16,32.62Zm5.12,0a1.67,1.67,0,0,0-1.65-1.73,1.74,1.74,0,1,0,1.65,1.73Z"/><path class="cls-3" d="M60.49,27h0a.89.89,0,0,1,.89.89h0a.89.89,0,0,1-.89.89h0a.89.89,0,0,1-.89-.89h0A.89.89,0,0,1,60.49,27Zm-.89,2.42h1.77v6.46H59.6Z"/><path class="cls-3" d="M62,29.39h1.76v1.06a1.82,1.82,0,0,1,1.78-1.06h.71v1.72H65.09c-.94,0-1.36.49-1.36,1.69v3.05H62Z"/><path class="cls-3" d="M43.87,29.47l-4.8,11.4a.39.39,0,0,1-.36.24h-.37l2.2-5.26-3-6.38h.64l2.67,5.67,2.4-5.67Z"/><path class="cls-3" d="M41.8,36.73l-.91,2.15H62.76a1,1,0,0,0,1-1V36.73Z"/><path class="cls-3" d="M37.69,36.73H21.51a.82.82,0,0,0-.76,1.14l1.25,3a.32.32,0,0,0,.62-.12V38.87a.28.28,0,0,1,.28-.28h.33a.3.3,0,0,1,.31.28v1.86a.33.33,0,0,0,.12.25.42.42,0,0,0,.31.1.38.38,0,0,0,.36-.37V38.86a.3.3,0,0,1,.31-.28h.41a.3.3,0,0,1,.31.28v1.86a.33.33,0,0,0,.12.25.42.42,0,0,0,.31.1.38.38,0,0,0,.36-.37V38.86a.3.3,0,0,1,.31-.28h.41a.3.3,0,0,1,.31.28v1.86a.33.33,0,0,0,.12.25.42.42,0,0,0,.31.1A.38.38,0,0,0,28,40.7V38.86a.3.3,0,0,1,.31-.28h.41a.3.3,0,0,1,.31.28v1.86a.33.33,0,0,0,.12.25.42.42,0,0,0,.31.1.38.38,0,0,0,.36-.37V38.86a.3.3,0,0,1,.31-.28h.41a.3.3,0,0,1,.31.28v1.86A.33.33,0,0,0,31,41a.42.42,0,0,0,.31.1.38.38,0,0,0,.36-.37V38.86a.3.3,0,0,1,.31-.28h.41a.3.3,0,0,1,.31.28v1.86a.33.33,0,0,0,.12.25.42.42,0,0,0,.31.1.38.38,0,0,0,.36-.37V38.86a.3.3,0,0,1,.31-.28h.41a.3.3,0,0,1,.31.28v1.86a.33.33,0,0,0,.12.25.42.42,0,0,0,.31.1.38.38,0,0,0,.36-.37V38.86a.3.3,0,0,1,.31-.28H36a.3.3,0,0,1,.31.28v1.86a.33.33,0,0,0,.12.25.42.42,0,0,0,.31.1.38.38,0,0,0,.36-.37V38.86a.3.3,0,0,1,.31-.28h.4a.28.28,0,0,1,.28.28l0,.35,1-2.49Z"/></g></g></svg>