<?xml version="1.0" encoding="utf-8"?>
<!-- Generator: Adobe Illustrator 21.0.0, SVG Export Plug-In . SVG Version: 6.00 Build 0)  -->
<svg version="1.1" id="Layer_1" xmlns="http://www.w3.org/2000/svg" xmlns:xlink="http://www.w3.org/1999/xlink" x="0px" y="0px"
	 viewBox="0 0 32 32" style="enable-background:new 0 0 32 32;" xml:space="preserve">
<style type="text/css">
	.st0{fill:#DB1D78;}
</style>
<path class="st0" d="M16,0C7.2,0,0,7.2,0,16s7.2,16,16,16s16-7.2,16-16S24.8,0,16,0z M20.6,24c-0.3,0.3-0.7,0.5-1.2,0.5
	c-1,0-1.7-0.9-1.7-1.7c0-0.4,0.2-0.8,0.5-1.2l3.9-3.9H5.8c-0.9,0-1.7-0.8-1.7-1.7s0.8-1.7,1.7-1.7h16.3l-3.9-3.9
	c-0.3-0.3-0.5-0.7-0.5-1.2c0-0.8,0.7-1.7,1.7-1.7c0.5,0,0.8,0.2,1.2,0.5l6.8,6.8c0.3,0.3,0.5,0.6,0.5,1.2s-0.3,1-0.6,1.2L20.6,24z"
	/>
</svg>
