<svg xmlns="http://www.w3.org/2000/svg" viewBox="0 0 135.96 59.29"><defs><style>.cls-1{fill:#000000;}</style></defs><title>titulo</title><g id="Capa_2" data-name="Capa 2"><g id="Capa_1-2" data-name="Capa 1"><path class="cls-1" d="M14,18.21c-4,0-6-4.49-5.91-8.21H9.8a4.82,4.82,0,0,0,5-4c.45-2.64-1.47-4.67-4.29-4.74H6.74l-3,16.92H2.29L5.49,0H10.7a5.28,5.28,0,0,1,5.51,6.26,6.07,6.07,0,0,1-6.24,5H9.55c.3,2.82,2,5.61,4.67,5.61h.4l-.27,1.35Z"/><path class="cls-1" d="M16.46,11.25a7.22,7.22,0,0,1,7.26-5.76c3.49,0,5.31,2,4.94,4.14s-2.42,3.52-5.79,3.49a14.84,14.84,0,0,1-5.16-1c-.27,3,1.72,5.14,5,5.14a5.43,5.43,0,0,0,4.19-1.9L28,16a6.88,6.88,0,0,1-5.39,2.42C18.21,18.46,15.79,15.22,16.46,11.25Zm1.45-.37a15.79,15.79,0,0,0,4.87,1c2.64,0,4.24-.92,4.52-2.47.22-1.32-.92-2.67-3.54-2.67A6,6,0,0,0,17.91,10.88Z"/><path class="cls-1" d="M29.78,11.2a6.85,6.85,0,0,1,6.76-5.71,5.87,5.87,0,0,1,5.51,3.29l-1.27.65a4.5,4.5,0,0,0-4.29-2.64,5.51,5.51,0,0,0-5.36,4.59,4.75,4.75,0,0,0,4.69,5.79,5.3,5.3,0,0,0,4.52-2.49l1.3.62a6.84,6.84,0,0,1-5.89,3.17A5.92,5.92,0,0,1,29.78,11.2Z"/><path class="cls-1" d="M43,11.18a6.84,6.84,0,0,1,6.74-5.69,6,6,0,0,1,6,7.33,6.81,6.81,0,0,1-6.76,5.64A5.92,5.92,0,0,1,43,11.18ZM54.3,12.62a4.76,4.76,0,0,0-4.64-5.84,5.5,5.5,0,0,0-5.34,4.59A4.74,4.74,0,0,0,49,17.16,5.5,5.5,0,0,0,54.3,12.62Z"/><path class="cls-1" d="M58.57,8.88C58.82,7.63,58.45,7,57.4,7H57l.22-1.22H58a1.8,1.8,0,0,1,1.95,1.92,5.32,5.32,0,0,1,4.47-2.17,4.2,4.2,0,0,1,4.07,2.77,5.3,5.3,0,0,1,4.71-2.77c3.52,0,5.24,2.57,4.59,6l-.72,3.67c-.25,1.25.13,1.82,1.1,1.82h.42l-.25,1.22h-.85c-1.47,0-2.27-1-1.85-3l.72-3.77c.47-2.64-.57-4.72-3.29-4.72-2.42,0-3.84,1.82-4.29,4.07l-1.45,7.41H65.91l1.45-7.36c.45-2.27-.8-4.12-3.19-4.12s-4,1.6-4.54,4.37c-.08.3-1.4,7.11-1.4,7.11H56.8Z"/><path class="cls-1" d="M79.78,11.25A7.22,7.22,0,0,1,87,5.49c3.49,0,5.31,2,4.94,4.14s-2.42,3.52-5.79,3.49a14.85,14.85,0,0,1-5.17-1c-.27,3,1.72,5.14,5,5.14a5.43,5.43,0,0,0,4.19-1.9l1.12.72A6.88,6.88,0,0,1,86,18.46C81.53,18.46,79.11,15.22,79.78,11.25Zm1.45-.37a15.78,15.78,0,0,0,4.86,1c2.64,0,4.24-.92,4.52-2.47.22-1.32-.92-2.67-3.54-2.67A6,6,0,0,0,81.23,10.88Z"/><path class="cls-1" d="M94.66,8.88c.25-1.3-.1-1.92-1.17-1.92h-.35l.22-1.22h.72a1.79,1.79,0,0,1,1.95,2,5.83,5.83,0,0,1,4.64-2.22c3.39,0,5.34,2.59,4.67,6l-.7,3.67c-.27,1.3,0,1.82,1.1,1.82h.4l-.25,1.22h-.72c-1.77,0-2.37-1-2-3l.72-3.77c.5-2.67-.67-4.72-3.39-4.72s-4.37,1.87-4.86,4.42l-1.35,7.06H92.88Z"/><path class="cls-1" d="M107.24,11.18a6.83,6.83,0,0,1,6.69-5.69A5.23,5.23,0,0,1,119,8.68L120.61,0H122l-2.72,15.12c-.25,1.3.13,1.87,1.27,1.87h.3l-.25,1.22h-.72a1.85,1.85,0,0,1-2-2.07,5.92,5.92,0,0,1-4.79,2.32C109.06,18.46,106.54,15.07,107.24,11.18Zm11.25,1.3c.55-2.92-1.2-5.69-4.52-5.69a5.51,5.51,0,0,0-5.39,4.59,4.73,4.73,0,0,0,4.64,5.79A5.5,5.5,0,0,0,118.49,12.47Z"/><path class="cls-1" d="M122.19,11.18a6.88,6.88,0,0,1,6.71-5.69A5.16,5.16,0,0,1,134,8.76l.55-3H136l-1.7,9.38c-.22,1.3.07,1.87,1.22,1.87h.32l-.25,1.22h-.75a1.83,1.83,0,0,1-2-2.1A5.87,5.87,0,0,1,128,18.46C124,18.46,121.51,15.07,122.19,11.18Zm11.28,1.3c.55-2.92-1.2-5.69-4.52-5.69a5.49,5.49,0,0,0-5.39,4.59c-.5,3,1.4,5.79,4.62,5.79A5.5,5.5,0,0,0,133.46,12.47Zm-1-12.22h1.87l-4.17,3.87h-1.37Z"/><path class="cls-1" d="M0,53.81l1.4-.44C2.48,56.21,5,57.93,8.52,57.93c4.84,0,7.16-3.48,8.12-8.64l.56-3.08a9.11,9.11,0,0,1-7.48,3.88c-5.76,0-8.48-4.36-7.4-9.84l1.16-5.92c.4-2.36-.2-3.4-2.08-3.4H.92l.2-1.24h1c2.36,0,3.36,1.48,2.76,4.64l-1.16,6c-.92,4.64,1.08,8.48,6.12,8.48,4.36,0,7.48-3.32,8.2-7.32.16-1,2.24-11.76,2.24-11.76h1.4L18.08,49.25c-1.12,6.24-3.92,10-9.64,10A8.65,8.65,0,0,1,0,53.81Z"/><path class="cls-1" d="M35.6,38.42A11,11,0,0,1,46.48,29.3a8.44,8.44,0,0,1,8.64,6.4l1.08-6h1.44L54.16,49.25c-1.08,6.24-4.24,10-10.32,10-4.56,0-7.6-2.16-8.84-5.44l1.44-.44c1.12,2.76,3.48,4.52,7.44,4.52,5.2,0,7.92-3.48,8.84-8.64,0,0,.32-2,.64-3.8A9.66,9.66,0,0,1,45,50.09C38.6,50.09,34.52,44.69,35.6,38.42ZM54.36,40.5c1-5.08-2.12-9.84-7.88-9.88a9.6,9.6,0,0,0-9.44,8c-.88,5.44,2.48,10.12,8.08,10.12A9.67,9.67,0,0,0,54.36,40.5Z"/><path class="cls-1" d="M61.13,38.42A10.94,10.94,0,0,1,72,29.3a8.44,8.44,0,0,1,8.6,6.28l1-5.88H83l-2.72,15.4c-.4,2.2.16,3.32,2,3.32h.52l-.24,1.28h-.88c-2.36,0-3.32-1.64-3-4.12a9.71,9.71,0,0,1-8.32,4.52C64.13,50.09,60,44.69,61.13,38.42ZM79.84,40.5c1-5.08-2.12-9.84-7.88-9.88a9.63,9.63,0,0,0-9.44,8c-.88,5.44,2.52,10.12,8.12,10.12C75.16,48.73,79,45.17,79.84,40.5Z"/><path class="cls-1" d="M89.48,34.34c.4-2.24-.16-3.4-2-3.4h-.56l.2-1.24H88c1.92,0,3.2,1.2,2.92,3.88a9.36,9.36,0,0,1,8-4.28c5.72,0,8.6,4.32,7.6,9.8l-1.2,6.08c-.4,2.16.12,3.28,2,3.28h.64l-.28,1.24h-.88c-2.44,0-3.48-1.48-2.88-4.6l1.16-6c.88-4.68-1.16-8.48-6.24-8.48a8.64,8.64,0,0,0-8.48,7.32L88,49.69H86.6Z"/><path class="cls-1" d="M111.51,38.42a10.94,10.94,0,0,1,10.84-9.12,8.44,8.44,0,0,1,8.6,6.28l1-5.88h1.44l-2.72,15.4c-.4,2.2.16,3.32,2,3.32h.52L133,49.69h-.88c-2.36,0-3.32-1.64-3-4.12a9.71,9.71,0,0,1-8.32,4.52C114.51,50.09,110.39,44.69,111.51,38.42Zm18.72,2.08c1-5.08-2.12-9.84-7.88-9.88a9.63,9.63,0,0,0-9.44,8c-.88,5.44,2.52,10.12,8.12,10.12C125.54,48.73,129.38,45.17,130.22,40.5Zm-1.68-19.6h2l-6.4,5.88h-1.48Z"/></g></g></svg>